# xmcd CD database file
# Generated: dim oct 13 16:52:29 2002 by KSCD
# 
# Track frame offsets:
#       150
#       52267
#       65520
#       78653
#       92367
#       105247
#       118067
#       131225
#       144312
#       156380
#       168593
#       181146
#       194915
#
# Disc length: 2873 seconds
#
# Revision: 1
# Processed by: cddbd v1.4PL0 Copyright (c) Steve Scherf et al.
# Submitted via: Kscd 1.3.3
#
DISCID=bd0b370d
DTITLE=John Lee Hooker - Les légendes du jazz - John Lee Hooker
DYEAR=1900
DGENRE=
TTITLE0=Boogie Chillren n°2
TTITLE1=Come Back Baby
TTITLE2=Slow Down Your Chatter Baby
TTITLE3=I'm Going Away
TTITLE4=Louisiana Blues For You
TTITLE5=Long, Long Way From Home
TTITLE6=TB's Killin' Me
TTITLE7=How Long
TTITLE8=Me And A Woman
TTITLE9=Throw My Money Away
TTITLE10=The Story Of A Married Woman
TTITLE11=Snap Them Fingers Boogie
TTITLE12=Wiskey and Women
EXTD=John Lee Hooker est le plus populaire des bluesmem. Cela fait maintena
EXTD=nt presque 60 ans qu'il nous martèle son boogie blues hypnothique. Ind
EXTD=émodable, insurpassable, infatiguable, il incarne l'essence même de ce
EXTD=tte musique sur laquelle le temps n'a pas de prise.\n
EXTT0=
EXTT1=
EXTT2=
EXTT3=
EXTT4=
EXTT5=
EXTT6=
EXTT7=
EXTT8=
EXTT9=
EXTT10=
EXTT11=
EXTT12=
PLAYORDER=
